# xmcd CD database file
#
# Track frame offsets:
#	150
#	22605
#	41247
#	66062
#	85997
#	106377
#	137022
#	162330
#	176622
#	204637
#	224777
#	249400
#	267945
#
# Disc length: 3975 seconds
#
# Revision: 0
# Processed by: cddbd v1.5.2PL0 Copyright (c) Steve Scherf et al.
# Submitted via: CDex 1.70beta2
#
DISCID=ba0f850d
DTITLE=George Lewis - The Beverly Caverns Sessions, Volume 2
DYEAR=1953
DGENRE=Jazz
TTITLE0=In Gloryland
TTITLE1=12th Street Rag
TTITLE2=St. Louis Blues
TTITLE3=Dippermouth Blues
TTITLE4=Red Wing
TTITLE5=Bourbon Street Parade
TTITLE6=Panama
TTITLE7=Maryland, My Maryland
TTITLE8=Careless Love
TTITLE9=Walk through the Streets of the City
TTITLE10=Bucket's Got a Hole In It
TTITLE11=High Society
TTITLE12=When the Saints Go Marching In
EXTD=YEAR: 1953
EXTT0=
EXTT1=
EXTT2=
EXTT3=
EXTT4=
EXTT5=
EXTT6=
EXTT7=
EXTT8=
EXTT9=
EXTT10=
EXTT11=
EXTT12=
PLAYORDER=
